# xmcd
#
# Track frame offsets:
#	150
#	18421
#	35880
#	63563
#	85560
#	105803
#	125984
#	149341
#	178197
#	198138
#	203299
#	223868
#	255328
#	277122
#	300339
#
# Disc length: 4105 seconds
#
# Revision: 3
# Processed by: cddbd v1.5.2PL0 Copyright (c) Steve Scherf et al.
# Submitted via: audiograbber 1.83.01
#
DISCID=d210070f
DTITLE=Pur - Schein and Sein - Das 1000. Konzert (Live aus Berlin) [CD 2)
DYEAR=2013
DGENRE=Pop
TTITLE0=Der Trick Dabei
TTITLE1=Ohne Dich
TTITLE2=Abenteuerland
TTITLE3=Stark
TTITLE4=Ich Lieb Dich
TTITLE5=Hohlraumversieglung
TTITLE6=Lena
TTITLE7=Ein Graues Haar
TTITLE8=Frei
TTITLE9=1001 Nacht
TTITLE10=Hör Gut Zu
TTITLE11=Medley: Parkbank, Prinzessin, Geweint Vor Glück
TTITLE12=Hab Mich Wieder Mal An Dir Betrunken
TTITLE13=Wiedersehen
TTITLE14=Stark Reprise
EXTD=
EXTT0=
EXTT1=
EXTT2=
EXTT3=
EXTT4=
EXTT5=
EXTT6=
EXTT7=
EXTT8=
EXTT9=
EXTT10=
EXTT11=
EXTT12=
EXTT13=
EXTT14=
PLAYORDER=
